<svg width="46" height="46" viewBox="0 0 46 46" fill="none" xmlns="http://www.w3.org/2000/svg">
<circle cx="23" cy="23" r="21.5" stroke="white" stroke-width="3"/>
<path d="M31.5714 24.4286H24.4286V31.5714C24.4286 31.9503 24.2781 32.3137 24.0102 32.5816C23.7422 32.8495 23.3789 33 23 33C22.6211 33 22.2578 32.8495 21.9898 32.5816C21.7219 32.3137 21.5714 31.9503 21.5714 31.5714V24.4286H14.4286C14.0497 24.4286 13.6863 24.2781 13.4184 24.0102C13.1505 23.7422 13 23.3789 13 23C13 22.6211 13.1505 22.2578 13.4184 21.9898C13.6863 21.7219 14.0497 21.5714 14.4286 21.5714H21.5714V14.4286C21.5714 14.0497 21.7219 13.6863 21.9898 13.4184C22.2578 13.1505 22.6211 13 23 13C23.3789 13 23.7422 13.1505 24.0102 13.4184C24.2781 13.6863 24.4286 14.0497 24.4286 14.4286V21.5714H31.5714C31.9503 21.5714 32.3137 21.7219 32.5816 21.9898C32.8495 22.2578 33 22.6211 33 23C33 23.3789 32.8495 23.7422 32.5816 24.0102C32.3137 24.2781 31.9503 24.4286 31.5714 24.4286Z" fill="white"/>
</svg>
