<svg width="46" height="46" viewBox="0 0 46 46" fill="none" xmlns="http://www.w3.org/2000/svg">
<path d="M32.8685 31.2399C31.599 28.9302 29.6166 27.1306 27.2405 26.1307C28.4221 25.212 29.2949 23.9313 29.7353 22.4699C30.1757 21.0085 30.1613 19.4405 29.6943 17.988C29.2272 16.5355 28.3311 15.2722 27.1329 14.377C25.9346 13.4817 24.4951 13 23.018 13C21.541 13 20.1014 13.4817 18.9032 14.377C17.705 15.2722 16.8089 16.5355 16.3418 17.988C15.8747 19.4405 15.8604 21.0085 16.3008 22.4699C16.7412 23.9313 17.614 25.212 18.7956 26.1307C16.4195 27.1306 14.4371 28.9302 13.1676 31.2399C13.0889 31.371 13.0365 31.5172 13.0134 31.6697C12.9903 31.8223 12.9971 31.9781 13.0333 32.1279C13.0694 32.2776 13.1343 32.4184 13.224 32.5416C13.3136 32.6649 13.4263 32.7683 13.5553 32.8455C13.6843 32.9228 13.8269 32.9723 13.9747 32.9913C14.1226 33.0102 14.2726 32.9982 14.4158 32.9559C14.5591 32.9135 14.6926 32.8418 14.8086 32.7449C14.9246 32.6479 15.0205 32.5278 15.0908 32.3917C16.7687 29.3855 19.7318 27.5925 23.018 27.5925C26.3043 27.5925 29.2674 29.3864 30.9453 32.3917C31.0976 32.6456 31.3392 32.8282 31.619 32.9008C31.8989 32.9734 32.1949 32.9303 32.4447 32.7808C32.6945 32.6312 32.8783 32.3868 32.9574 32.0992C33.0365 31.8117 33.0046 31.5035 32.8685 31.2399ZM18.203 20.2977C18.203 19.3105 18.4854 18.3455 19.0145 17.5247C19.5436 16.7039 20.2956 16.0642 21.1754 15.6864C22.0552 15.3087 23.0234 15.2098 23.9574 15.4024C24.8914 15.595 25.7494 16.0704 26.4228 16.7684C27.0962 17.4664 27.5548 18.3558 27.7406 19.324C27.9264 20.2922 27.831 21.2957 27.4666 22.2077C27.1021 23.1198 26.485 23.8993 25.6931 24.4477C24.9013 24.9961 23.9704 25.2889 23.018 25.2889C21.7415 25.2874 20.5176 24.761 19.6149 23.8253C18.7122 22.8896 18.2045 21.621 18.203 20.2977Z" fill="white"/>
<circle cx="23" cy="23" r="21.5" stroke="white" stroke-width="3"/>
</svg>
